<svg xmlns="http://www.w3.org/2000/svg" width="540" height="82.543" viewBox="0 0 540 82.543">
  <g id="designar-logo" transform="translate(0 -1.157)">
    <path id="Trazado_1755" data-name="Trazado 1755" d="M0,3.086H30.857A50.914,50.914,0,0,1,45.9,5.4a35.348,35.348,0,0,1,12.729,7.329c3.857,3.086,6.557,7.329,8.871,12.343a41.01,41.01,0,0,1,3.471,17.357c0,6.557-1.157,12.343-3.857,17.357A39.247,39.247,0,0,1,57.086,72.129a41.573,41.573,0,0,1-13.5,7.329,47.908,47.908,0,0,1-14.271,2.314H0ZM24.3,69.043A43.337,43.337,0,0,0,36.643,67.5a34.447,34.447,0,0,0,10.029-4.629,28.569,28.569,0,0,0,6.943-8.1,29.375,29.375,0,0,0,2.314-12.343,30.638,30.638,0,0,0-2.314-12.343,18.95,18.95,0,0,0-6.171-8.1,34.672,34.672,0,0,0-9.257-4.629,36.55,36.55,0,0,0-11.571-1.543H13.886V69.043Z"/>
    <path id="Trazado_1756" data-name="Trazado 1756" d="M184.757,20.057a11.152,11.152,0,0,0-5.786-4.629,17.269,17.269,0,0,0-7.714-1.543,18.779,18.779,0,0,0-4.629.386A12.873,12.873,0,0,0,162,16.2a11.739,11.739,0,0,0-3.086,3.086,16.576,16.576,0,0,0-.771,4.629,7.193,7.193,0,0,0,2.7,6.171,19.579,19.579,0,0,0,6.943,3.471c2.7,1.157,5.786,1.929,8.871,3.086a36.38,36.38,0,0,1,8.871,3.857,19.911,19.911,0,0,1,6.943,6.943c1.929,2.7,2.7,6.557,2.7,11.186a26.379,26.379,0,0,1-2.314,11.186,20.3,20.3,0,0,1-6.171,7.714,34.672,34.672,0,0,1-9.257,4.629,33.277,33.277,0,0,1-10.8,1.543,40.346,40.346,0,0,1-13.886-2.314,24.437,24.437,0,0,1-11.571-8.1l10.414-10.029a16.83,16.83,0,0,0,6.557,6.171,17.918,17.918,0,0,0,8.871,2.314,26.544,26.544,0,0,0,5.014-.771,14.258,14.258,0,0,0,4.243-1.929,9.107,9.107,0,0,0,3.086-3.471,10.27,10.27,0,0,0,1.157-4.629c0-2.7-.771-5.014-2.7-6.557a29.612,29.612,0,0,0-6.943-3.857c-2.7-1.157-5.786-1.929-8.871-3.086a36.38,36.38,0,0,1-8.871-3.857,22.424,22.424,0,0,1-6.943-6.557c-1.929-2.7-2.7-6.557-2.7-11.186A20.819,20.819,0,0,1,145.8,15.429,20.034,20.034,0,0,1,152.357,8.1a25.42,25.42,0,0,1,9.257-4.243,48.624,48.624,0,0,1,10.8-1.543,40.839,40.839,0,0,1,11.957,1.929,28.711,28.711,0,0,1,10.414,6.171Z"/>
    <path id="Trazado_1757" data-name="Trazado 1757" d="M206.743,3.086h13.886v78.3H206.743Z"/>
    <path id="Trazado_1758" data-name="Trazado 1758" d="M304.714,75.986a69.272,69.272,0,0,1-32.4,7.714,45.353,45.353,0,0,1-16.586-3.086,36.6,36.6,0,0,1-13.114-8.486A36.845,36.845,0,0,1,234.129,59.4a45.352,45.352,0,0,1-3.086-16.586,47.47,47.47,0,0,1,3.086-16.971,37.275,37.275,0,0,1,21.6-21.6,46.937,46.937,0,0,1,16.586-3.086,60.16,60.16,0,0,1,16.971,2.314,30.855,30.855,0,0,1,13.886,7.714L292.757,21.6a31.53,31.53,0,0,0-9.257-5.786,35.836,35.836,0,0,0-11.186-1.929A26.379,26.379,0,0,0,261.129,16.2a23,23,0,0,0-8.486,6.171,26.135,26.135,0,0,0-5.4,8.871,33.463,33.463,0,0,0-1.929,10.8,36.361,36.361,0,0,0,1.929,11.571,27.838,27.838,0,0,0,5.4,9.257,23,23,0,0,0,8.486,6.171,26.379,26.379,0,0,0,11.186,2.314A42.043,42.043,0,0,0,282.343,70.2a31.877,31.877,0,0,0,8.486-3.086V48.6h-16.2V35.871h30.086Z"/>
    <path id="Trazado_1759" data-name="Trazado 1759" d="M318.214,3.086h18.514l37.8,58.243h.386V3.086H388.8v78.3H371.057L332.486,21.214H332.1V81.386H318.214Z"/>
    <path id="Trazado_1760" data-name="Trazado 1760" d="M480.986,3.086h27.386a48.794,48.794,0,0,1,10.8,1.157,32.954,32.954,0,0,1,9.257,3.471,16.341,16.341,0,0,1,6.557,6.943c1.543,2.7,2.314,6.557,2.314,10.8,0,5.786-1.543,10.414-4.629,14.271s-7.714,6.171-13.5,6.943L540,81.386H523.029L504.9,48.214H494.871V81.386H480.986Zm24.686,33.171a35.3,35.3,0,0,0,6.171-.386,22.249,22.249,0,0,0,5.4-1.157,10.5,10.5,0,0,0,3.857-3.086c1.157-1.543,1.543-3.471,1.543-6.171,0-2.314-.386-4.243-1.543-5.4-.771-1.543-2.314-2.314-3.857-3.086a19.1,19.1,0,0,0-5.014-1.543,27.324,27.324,0,0,0-5.4-.386H494.871V36.257Z"/>
    <g id="Grupo_460" data-name="Grupo 460">
      <path id="Trazado_1761" data-name="Trazado 1761" d="M434.7,25.071l24.3,56.7h15.814L441.257,3.086H428.914L394.971,81.771H410.4Z" fill="#c5cf50"/>
    </g>
    <path id="Trazado_1762" data-name="Trazado 1762" d="M81.386,3.086H135V15.814H95.271V36.257h40.114V48.986H95.271V69.043h40.114V81.771h-54Z"/>
  </g>
</svg>
