<svg xmlns="http://www.w3.org/2000/svg" width="600.276" height="192.437" viewBox="0 0 600.276 192.437">
  <g id="logo-lampara" transform="translate(-0.749 -0.969)">
    <g id="Grupo_464" data-name="Grupo 464" transform="translate(234.924 47.911)">
      <g id="Grupo_463" data-name="Grupo 463">
        <g id="Grupo_462" data-name="Grupo 462">
          <path id="Trazado_1771" data-name="Trazado 1771" d="M169.568,43.74a43,43,0,0,1,3.488-4.368,21.667,21.667,0,0,1,4.309-3.646,25.293,25.293,0,0,1,5.542-2.576,26.8,26.8,0,0,1,6.935-1.21,19.074,19.074,0,0,1,6.5.722,22.506,22.506,0,0,1,5.67,2.556,21.9,21.9,0,0,1,4.659,4.008,26,26,0,0,1,3.476,4.879,24.869,24.869,0,0,1,2.4,6.548,66.476,66.476,0,0,1,1.25,7.617c.3,2.662.611,5.426.774,8.271.242,2.84.488,5.623.927,8.4L207.086,76a99.743,99.743,0,0,1-1.42-12.028A85.224,85.224,0,0,0,204.2,52.551a16.371,16.371,0,0,0-2.081-5.167,13.233,13.233,0,0,0-3.6-3.969,13.746,13.746,0,0,0-4.795-2.322,14.508,14.508,0,0,0-5.633-.355,14.229,14.229,0,0,0-5.522,1.824,14.055,14.055,0,0,0-3.971,3.545,13.246,13.246,0,0,0-2.354,4.832,17.483,17.483,0,0,0-.7,5.692A72.792,72.792,0,0,0,176.9,67.785a97.366,97.366,0,0,1,1.489,11.776l-8.357,1.026c-.574-3.163-.984-6.36-1.257-9.592-.242-3.212-.6-6.254-1.048-9.133A40,40,0,0,0,165.737,54a12.451,12.451,0,0,0-3.952-5.559,15.9,15.9,0,0,0-4.642-2.529,14.545,14.545,0,0,0-15.659,4.708A16.591,16.591,0,0,0,138.4,61.053a77.265,77.265,0,0,0,1.388,11.239A91.732,91.732,0,0,1,141.3,84.174l-8.372,1.05c-.19-2.379-.471-4.738-.774-7.038-.355-2.283-.7-4.506-1.045-6.688s-.668-4.252-.924-6.3-.424-4.026-.486-5.971a18.078,18.078,0,0,1,1.388-7.506,26.969,26.969,0,0,1,3.451-6.2,23.866,23.866,0,0,1,5.243-5.017,19.172,19.172,0,0,1,7.139-3.247,27.718,27.718,0,0,1,7.139-.663,21.334,21.334,0,0,1,6.03,1.151,25.869,25.869,0,0,1,5.147,2.529,32.631,32.631,0,0,1,4.331,3.466" transform="translate(-46.001 -2.586)" fill="#129bd8"/>
          <path id="Trazado_1772" data-name="Trazado 1772" d="M232.1,68.978l-7.972,1.011a9.022,9.022,0,0,1-.343-2.219,8.044,8.044,0,0,0-.4-2.2c-.73.54-1.464,1.122-2.187,1.728a25.509,25.509,0,0,1-2.325,1.657,20.436,20.436,0,0,1-4.662,2.071A23.912,23.912,0,0,1,208.28,72a20.123,20.123,0,0,1-7.608-1.1,26.516,26.516,0,0,1-6.4-3.409,23.135,23.135,0,0,1-4.911-5.123,20.222,20.222,0,0,1-3.037-6.962,21.886,21.886,0,0,1-.712-5.81,20.241,20.241,0,0,1,.712-5.059,23.016,23.016,0,0,1,1.588-4.317,19.857,19.857,0,0,1,2.261-3.56,23.491,23.491,0,0,1,4.161-4.22,21.141,21.141,0,0,1,5.6-3.054,23.256,23.256,0,0,1,3.582-.927,29.779,29.779,0,0,1,4.156-.5,18.729,18.729,0,0,1,7.42,1.287,23.028,23.028,0,0,1,6.109,3.459,25.082,25.082,0,0,1,4.829,5.1,20.443,20.443,0,0,1,3.081,6.925,34.555,34.555,0,0,1,.915,6.045c.148,2.081.367,4.124.643,6.156.242,2.053.5,4.028.767,6.01.306,1.982.5,3.986.675,6.042M197.269,41.141a14.575,14.575,0,0,0-1.706,2.574,12.6,12.6,0,0,0-1.213,3.215,15.992,15.992,0,0,0-.367,3.626,12.954,12.954,0,0,0,.693,3.937,13.45,13.45,0,0,0,2.155,3.863,14.2,14.2,0,0,0,7.694,4.977,12.97,12.97,0,0,0,4.982.264,11.542,11.542,0,0,0,5.118-1.844,14.466,14.466,0,0,0,3.747-3.441,13.841,13.841,0,0,0,2.48-4.432,11.3,11.3,0,0,0,.459-5.682,12.9,12.9,0,0,0-1.9-5.221,14.208,14.208,0,0,0-8.165-6.264,11.535,11.535,0,0,0-6.414-.059,13.419,13.419,0,0,0-7.561,4.489" transform="translate(35.925 -8.371)" fill="#129bd8"/>
          <path id="Trazado_1773" data-name="Trazado 1773" d="M271.878,64.03,263.9,65.048a9.083,9.083,0,0,1-.343-2.216,7.725,7.725,0,0,0-.394-2.2c-.735.552-1.474,1.124-2.187,1.735-.717.574-1.538,1.136-2.322,1.652a19.772,19.772,0,0,1-4.664,2.063,22.9,22.9,0,0,1-5.936.961,19.688,19.688,0,0,1-7.617-1.092,26.87,26.87,0,0,1-6.39-3.4,23.086,23.086,0,0,1-4.916-5.13,20.416,20.416,0,0,1-3.037-6.962,20.885,20.885,0,0,1-.693-5.815,19.667,19.667,0,0,1,.688-5.063,23.464,23.464,0,0,1,1.593-4.3,19.358,19.358,0,0,1,2.248-3.575,24.352,24.352,0,0,1,4.179-4.218,20.888,20.888,0,0,1,5.6-3.057,23.284,23.284,0,0,1,3.572-.92,30.682,30.682,0,0,1,4.141-.5,18.758,18.758,0,0,1,7.437,1.284,23.167,23.167,0,0,1,6.1,3.461,25.444,25.444,0,0,1,4.824,5.1,20.207,20.207,0,0,1,3.079,6.917,33.9,33.9,0,0,1,.922,6.05c.143,2.073.375,4.127.638,6.156.249,2.056.5,4.035.777,6.008.3,1.975.505,3.984.673,6.032M237.048,36.2a14.794,14.794,0,0,0-1.718,2.588,12.938,12.938,0,0,0-1.2,3.19,15.66,15.66,0,0,0-.37,3.644,12.477,12.477,0,0,0,.7,3.942,13.155,13.155,0,0,0,2.157,3.856,13.754,13.754,0,0,0,12.669,5.239,11.527,11.527,0,0,0,5.115-1.846,14.309,14.309,0,0,0,3.742-3.441,13.8,13.8,0,0,0,2.48-4.42,11.338,11.338,0,0,0,.459-5.69,13.018,13.018,0,0,0-1.9-5.221,13.769,13.769,0,0,0-3.136-3.607,13.957,13.957,0,0,0-5.039-2.65,11.284,11.284,0,0,0-6.412-.057,13.34,13.34,0,0,0-7.551,4.474" transform="translate(94.223 -15.609)" fill="#129bd8"/>
          <path id="Trazado_1774" data-name="Trazado 1774" d="M248.889,41.14c-1.324.264-2.7.5-4.139.666-1.42.136-2.835.281-4.213.439a17.9,17.9,0,0,0-5.436-6.4,13.509,13.509,0,0,0-8.547-2.029,12.184,12.184,0,0,0-4.935,1.363,13.965,13.965,0,0,0-3.937,2.924,14.6,14.6,0,0,0-2.776,4.684,18.707,18.707,0,0,0-.991,6.02,44.827,44.827,0,0,0,.587,5.487c.3,1.866.594,3.75.838,5.621l1.4,11.145c-1.282.279-2.606.476-4.033.641-1.358.141-2.751.3-4.1.481L206.283,53.5c-.118-1.038-.279-2.093-.473-3.141a18.674,18.674,0,0,1-.266-2.978,13.775,13.775,0,0,1,.486-4.538,40.049,40.049,0,0,1,1.361-4.016,21.925,21.925,0,0,1,11.165-11.446,21.273,21.273,0,0,1,4.016-1.309,25.472,25.472,0,0,1,4.975-.705A21.57,21.57,0,0,1,241.03,29.8a21.759,21.759,0,0,1,7.859,11.337" transform="translate(65.098 -12.165)" fill="#129bd8"/>
          <path id="Trazado_1775" data-name="Trazado 1775" d="M95.742,22.175l8.11-2.164s7.6,65.48,8.219,68.653a14.107,14.107,0,0,0,5.344,9.092,15.847,15.847,0,0,0,10.467,2.739l.949,7.765A20.073,20.073,0,0,1,120,108.1a19.075,19.075,0,0,1-6.838-3.237,25.335,25.335,0,0,1-5.308-5.152,17.209,17.209,0,0,1-3.395-7.3,36.776,36.776,0,0,1-.774-5.561C103.52,84.964,95.742,22.175,95.742,22.175Z" transform="translate(-95.742 -20.011)" fill="#129bd8"/>
          <path id="Trazado_1776" data-name="Trazado 1776" d="M156.175,77.736l-7.955.974a8.76,8.76,0,0,1-.34-2.167,9.22,9.22,0,0,0-.37-2.233c-.777.572-1.5,1.161-2.209,1.748a21.669,21.669,0,0,1-2.352,1.666,18.585,18.585,0,0,1-4.615,2.031,22.938,22.938,0,0,1-5.978.976,19.063,19.063,0,0,1-7.612-1.112,24.477,24.477,0,0,1-6.318-3.385,22.979,22.979,0,0,1-4.962-5.162,20.094,20.094,0,0,1-3.062-6.952,22.989,22.989,0,0,1-.666-5.81,20.945,20.945,0,0,1,.671-5.041,21.7,21.7,0,0,1,1.666-4.344,18.055,18.055,0,0,1,2.182-3.52,22.532,22.532,0,0,1,4.215-4.22,18.769,18.769,0,0,1,5.6-3.054,18.5,18.5,0,0,1,3.533-.922,24.159,24.159,0,0,1,4.186-.481,19.009,19.009,0,0,1,7.477,1.279,21.753,21.753,0,0,1,6.027,3.466,23.871,23.871,0,0,1,4.8,5.091,19.573,19.573,0,0,1,3.114,6.927,35.555,35.555,0,0,1,.91,6.062c.148,2.041.335,4.107.611,6.143s.518,4.031.846,6c.246,1.962.449,3.984.594,6.04M121.359,49.9a15.7,15.7,0,0,0-1.7,2.561,13.281,13.281,0,0,0-1.191,3.207A14.852,14.852,0,0,0,118.1,59.3a12.007,12.007,0,0,0,.722,3.957,12.733,12.733,0,0,0,2.142,3.819,13.727,13.727,0,0,0,3.333,3.116,13.158,13.158,0,0,0,4.329,1.906,14.51,14.51,0,0,0,4.98.259,11.954,11.954,0,0,0,5.125-1.844,15.131,15.131,0,0,0,3.782-3.471,14.387,14.387,0,0,0,2.453-4.405,10.945,10.945,0,0,0,.434-5.672,12.727,12.727,0,0,0-1.849-5.209,13.465,13.465,0,0,0-3.178-3.626,12.971,12.971,0,0,0-5.009-2.645,11.627,11.627,0,0,0-6.444-.084,13.776,13.776,0,0,0-7.558,4.506" transform="translate(-75.255 4.478)" fill="#129bd8"/>
          <path id="Trazado_1777" data-name="Trazado 1777" d="M174.768,134.01c-.36-2.031-6.646-61.832-6.875-63.806-.177-1.994-.419-4-.651-6.017s-.552-4.082-.915-6.106a35.833,35.833,0,0,1-.6-6.1,19.5,19.5,0,0,1,1.314-7.482,24.116,24.116,0,0,1,3.417-6.1,22.174,22.174,0,0,1,4.99-4.834,19.383,19.383,0,0,1,6.957-3.079,25.631,25.631,0,0,1,4.169-.547,20.294,20.294,0,0,1,9.829,1.627A22.507,22.507,0,0,1,201.52,34.6,18.217,18.217,0,0,1,204.5,37.5a20.692,20.692,0,0,1,4.573,8.525,23.56,23.56,0,0,1,.767,5.8,19.974,19.974,0,0,1-1.262,7.492,23.421,23.421,0,0,1-3.547,6.212,24.077,24.077,0,0,1-5.3,4.829,19.367,19.367,0,0,1-7.1,2.941,22.936,22.936,0,0,1-6.045.52,18.8,18.8,0,0,1-4.98-.848,20.809,20.809,0,0,1-2.682-1.05c-.838-.389-1.662-.774-2.566-1.151a8.941,8.941,0,0,0,.185,2.248c.178.8,6.382,60.463,6.368,61.1m12.565-93.531a13.856,13.856,0,0,0-8.443-2.522,11.7,11.7,0,0,0-6.212,1.664,13.015,13.015,0,0,0-4.218,3.791A13.41,13.41,0,0,0,174.4,47.8a12.556,12.556,0,0,0-.513,5.5,10.744,10.744,0,0,0,1.807,5.4,14.231,14.231,0,0,0,3.449,3.673,15.086,15.086,0,0,0,4.506,2.436,12,12,0,0,0,5.426.53,14.389,14.389,0,0,0,4.753-1.459,13.016,13.016,0,0,0,3.742-2.914,13.562,13.562,0,0,0,2.475-3.838,12.7,12.7,0,0,0,1.144-4.215,12.352,12.352,0,0,0-.266-4.026,15.492,15.492,0,0,0-1.255-3.424,12.566,12.566,0,0,0-1.952-2.818,16.255,16.255,0,0,0-2.248-2.063" transform="translate(6.802 -5.591)" fill="#129bd8"/>
        </g>
        <path id="Trazado_1778" data-name="Trazado 1778" d="M140.287,39.621l-6.37-9.052-17.165,2-4.462,10.29Z" transform="translate(-71.496 -4.542)" fill="#129bd8"/>
      </g>
    </g>
    <path id="Trazado_1779" data-name="Trazado 1779" d="M96.97.969a96.218,96.218,0,1,0,96.221,96.218A96.22,96.22,0,0,0,96.97.969Zm43.557,112.348a9.442,9.442,0,0,0-.306,7.371,5.182,5.182,0,0,1-5.921-.207,9.366,9.366,0,0,0,.155-7.361,5.748,5.748,0,0,1,2.62-.814V94.589c-1.592.118-3.577.237-5.4.343-.431.4-.471.515-.634.6a9.367,9.367,0,0,0-1.124.572c-.025.074-.059.121.081.116s.769-.276.984-.325.286-.116.752-.286c.459-.2,1.435-.626,1.743-.7.256-.094.7-.155.8-.022.084.141.276.269-.052.394-.3.165-.609.382-.668.414a2.117,2.117,0,0,0-.638.318c-.094.143.141.121.3.155.062.02.222.081.2.237-.062.121.064.111-.36.286-.417.192-.7.247-1.112.461a5.324,5.324,0,0,1-1.24.641c-.387.1-1.168.192-1.612.313a11.615,11.615,0,0,0-1.27.491,7.451,7.451,0,0,1-1.08.414,1.479,1.479,0,0,1-.264.047,5.851,5.851,0,0,0,.232,1,1.283,1.283,0,0,1,.081,1.112c-.168.572-.325.976-.606,1.136s-1.824.924-2.044,1.112a4.852,4.852,0,0,1-.547.51c-.18.2-.32.53-.532.656a5.062,5.062,0,0,0-.786.375,1.078,1.078,0,0,1-.572.39c-.212.049-.234.02-.335.086-.143.081-.274.182-.8.449-.537.242-3.436,1.368-3.888,1.541-.473.155-1.373.567-1.718.7a3.744,3.744,0,0,1-1.245.192c-.318-.015-.436.177-1.307-.365a14.662,14.662,0,0,1-2.172-1.511,13.169,13.169,0,0,1-.818-1.45c-.251-.471-.478-.875-.557-.981a1.456,1.456,0,0,1-.1-.141s-.293,1.829-.429,3.015c-.185,1.181-.372,2.105-.51,3.005s-.242,1.733-.242,1.733-.136,1.161-.155,1.743c0,.567.306,2.426.32,2.9s.02,2.3-.035,3.067-.291,3.138-.328,3.779-.16.823-.141,1.228.1.828.1,1.218a13.575,13.575,0,0,0-.069,1.378.517.517,0,0,1,.012.227l-.18.076s-.044,1.565.017,2.763.242,4.96.251,6.158a15.22,15.22,0,0,1-.276,3.424,7.723,7.723,0,0,0-.173,2.633,41.011,41.011,0,0,1,.091,4.81,5.055,5.055,0,0,0,.039,1.95,20.151,20.151,0,0,1,.19,2.243c.039,1.07.217,2.845.17,3.446a4.513,4.513,0,0,0,.032,1.6c.141.929.513,3.237.661,4.667.118,1.43.4,3.091.2,3.429-.138.343-.685,1.151-.648,1.521.067.385.271,1.45.4,1.92a2.967,2.967,0,0,1,.089,1.358c-.145.5-.3,1.632-.4,1.839-.141.192-.237.01-.34-.173s-.451-.126-.451-.126.2.237.4.429a1.193,1.193,0,0,1,.37.6,3.456,3.456,0,0,0,.084.668,2.7,2.7,0,0,1,.062,1.05c-.035.357-.123.318-.1.56-.01.256.049.885-.138,1.132a1.545,1.545,0,0,0-.281.353s.052.565-.15.631a12.167,12.167,0,0,1-3.419.242,13.175,13.175,0,0,1-3.02-.5s-.1-.515-.01-.606a1.114,1.114,0,0,1,.313-.116,2.151,2.151,0,0,1-.291-.88,1.049,1.049,0,0,1,.254-.678c.155-.173.343-.394.343-.394l-.091-.116a2.394,2.394,0,0,1,.3-.414c.232-.264.224-.4.4-.868a4.056,4.056,0,0,0,.145-.419s-.791-.747-.981-.976a4.225,4.225,0,0,1-.377-.476s.224-2.243.173-2.845a23.269,23.269,0,0,0-.542-2.51c-.1-.328-.707-3.143-.858-3.966-.111-.678-.5-4.743-.567-5.542-.039-.264-.619-6.471-.619-6.471s-.247-1.925-.483-4.319c-.3-2.389-.774-7.144-.961-8.677-.2-1.516-.2-1.984-.338-2.51a3.254,3.254,0,0,0-.429-.964,3.409,3.409,0,0,1-.131,1.252,9.1,9.1,0,0,1-.6,1.955,4.331,4.331,0,0,0-.076,1.728,8.771,8.771,0,0,1-.3,2.616c-.219,1.156-.192,3.183-.439,4.637a26.263,26.263,0,0,1-.74,3.168,4.771,4.771,0,0,0,.074,1,10.252,10.252,0,0,1-.074,2.288c-.175,1.415-.505,3.486-.557,4.45-.131.959-.6,4.8-.836,6.1a12.435,12.435,0,0,0-.266,2.677,4.2,4.2,0,0,1-.779,2.527c-.8,1.41-.89,1.42-.779,1.647a7.787,7.787,0,0,1,.069,2.007c.01.1-.027,1.055-.057,1.3.012.274-.141.449,0,.582.128.106.173.232.079.555s.187.626-.8.727a14.938,14.938,0,0,1-3.35.158,1.059,1.059,0,0,0-.661-.222c-.2.015-.325.217-.685.375-.308.192-.589.444-1.94.36a40.079,40.079,0,0,1-4.405-.318c-.846-.168-1.267-.434-1.262-.666-.022-.212-.052-.486.022-.555.079-.091.212-.01.224-.116.044-.136-.123-.222-.047-.328.121-.116,0-.269.525-.525.587-.232,1.649-.688,1.822-.727a3.174,3.174,0,0,1,.715-.01c.148-.02.256-.158.587-.323.311-.192.463-.38.693-.52s.044-.044.027-.126c-.052-.081-.168-.1.007-.126.173-.057.18.01.38-.136a.8.8,0,0,0,.266-.247l-.133-.081-.128-.02-.732.717-.121-.091.769-.661.052-.1-.076-.1s.037-.163.141-.173l.2-.052a.759.759,0,0,0,.081-.207,12.708,12.708,0,0,1,.486-1.3,9.473,9.473,0,0,1,.685-1.373,3.855,3.855,0,0,0,.493-1.045c.047-.155.108-.222.237-.232.158-.015.33-.02.256-.145a4.3,4.3,0,0,1-.15-1.294,3.886,3.886,0,0,1,.242-.91,3.4,3.4,0,0,0,.111-1.415c0-.895.017-6.212.017-6.212l.128-5.1-.017-5.49-.027-5.113.079-6.355-.143-4.57-.069-1.58L85,126.311s.1-1.334.084-2.061c.015-.7-.01-2.349.052-3.38.032-1.021.049-3.535,0-4.511-.03-.565-.044-.732-.039-.784,0,0-.15.057-.175-.049s-.232.086-.128-.572a16.86,16.86,0,0,0,.266-1.7,2.912,2.912,0,0,1,.3-.767,4.309,4.309,0,0,0,.17-1.156c.035-.269.259-1.469.308-1.748a15.3,15.3,0,0,0,.4-2.32,6.468,6.468,0,0,0-.155-2.408c-.158-.071-1.043,1.289-1.413,1.718a14.773,14.773,0,0,1-1.763,1.718,4.453,4.453,0,0,1-2.184.049c-1.21-.155-1.454-.106-1.814-.207a12.578,12.578,0,0,1-1.533-.545c-.626-.264-.523-.057-1.373-.4a7.267,7.267,0,0,0-1.829-.375,19.24,19.24,0,0,1-2.332-.572c-.678-.182-.818-.313-2.339-.858s-2.517-.873-2.517-.873a7.535,7.535,0,0,1,.165-1.5c.175-.56.515-1.834.515-1.834a1.574,1.574,0,0,0-.757-.247,18.844,18.844,0,0,1-2.3-.621,2.911,2.911,0,0,0-1.06-.207,5.1,5.1,0,0,1-1.092-.081c-.251-.071-.789-.237-1.208-.365a4.057,4.057,0,0,1-.826-.239c-.449-.219-.515-.318-.772-.417-.261-.062-.53-.19-.693-.239a1.194,1.194,0,0,1-.56-.281c-.1-.118-.054-.367.244-.38a3.107,3.107,0,0,1,1.166.219c.281.116.382.039.653.076s-.555-.232-.774-.34a1.891,1.891,0,0,0-.532-.266,4.934,4.934,0,0,1-.638-.175,2.137,2.137,0,0,0-.589-.145c-.118,0-.254-.254-.128-.407.163-.158.069-.148.4-.177a3.961,3.961,0,0,1,1.292.148,10.3,10.3,0,0,1,1.146.35c.394.131.281.012.848.153a7.112,7.112,0,0,0,1.208.279c.143-.007.192-.116.052-.227-.145-.081-.335-.1-.574-.232a2.382,2.382,0,0,0-.594-.224,6.6,6.6,0,0,1-.579-.4c-.192-.118-1.048-.515-1.5-.72-.481-.207-.705-.158-.717-.357a.309.309,0,0,1,.281-.375,3.339,3.339,0,0,1,1.028.086,5.2,5.2,0,0,1,.831.279,8.89,8.89,0,0,0,.956.414,3.693,3.693,0,0,1,1.018.33,5.3,5.3,0,0,0,1.4.37c.5.118.816.291,1.245-.076.471-.328.855-.587.7-1.087a.171.171,0,0,0-.012-.032q-14.954-.64-29.836-2.073C46.683,73.315,57.138,51,67.6,27.884c17.535-1.173,35.062-1.708,52.56-1.435,13.287,23.377,26.7,46.395,40.091,66.323-7.489.7-15.218,1.289-22.379,1.782V112.3A5.863,5.863,0,0,1,140.527,113.317Z" transform="translate(0 0)" fill="#129bd8"/>
    <g id="Grupo_465" data-name="Grupo 465" transform="translate(436.792 114.278)">
      <path id="Trazado_1780" data-name="Trazado 1780" d="M177.63,78.733l.683-23.081.37-.044,11.34,17.6,7.041-19.672.362-.044,5.835,22.349-2.224.251L196.955,60.1l-6.2,17.155-.577.067L180.2,61.862l-.382,16.625Z" transform="translate(-177.63 -37.326)" fill="#129bd8"/>
      <path id="Trazado_1781" data-name="Trazado 1781" d="M188.8,54.107l2.315-.264.964,8.527,8.118-9.553,3.049-.343L193.487,63.9,206.661,75.1l-3.025.343-11.15-9.456,1.193,10.583-2.315.259Z" transform="translate(-161.267 -38.813)" fill="#129bd8"/>
      <path id="Trazado_1782" data-name="Trazado 1782" d="M195.716,55.442l-.254-2.224,12.449-1.405.251,2.224-5.066.572L205.411,75.1l-2.315.264-2.315-20.5Z" transform="translate(-151.503 -39.783)" fill="#129bd8"/>
      <path id="Trazado_1783" data-name="Trazado 1783" d="M221.466,50.277l2.63,23.289-2.132.242-.325-2.889a9.327,9.327,0,0,1-2.771,2.83,8.568,8.568,0,0,1-9.986-.646,8.726,8.726,0,0,1-3.237-6.01,8.584,8.584,0,0,1,1.844-6.5,8.361,8.361,0,0,1,5.84-3.274,8,8,0,0,1,3.843.459,8.622,8.622,0,0,1,3.242,2.312l-1.08-9.577Zm-7.718,9.116a6.607,6.607,0,0,0-3.234,1.267,6.5,6.5,0,0,0-2.147,2.763,6.863,6.863,0,0,0,.772,6.784,6.667,6.667,0,0,0,2.729,2.248,6.4,6.4,0,0,0,3.395.53,6.807,6.807,0,0,0,3.264-1.277,6.287,6.287,0,0,0,2.172-2.7,6.936,6.936,0,0,0,.466-3.535,6.744,6.744,0,0,0-2.47-4.662A6.4,6.4,0,0,0,213.748,59.393Z" transform="translate(-136.676 -42.033)" fill="#129bd8"/>
      <path id="Trazado_1784" data-name="Trazado 1784" d="M215.233,49.852a1.727,1.727,0,0,1,1.319.38,1.764,1.764,0,0,1,.668,1.208,1.781,1.781,0,0,1-2.887,1.593,1.785,1.785,0,0,1-.286-2.517A1.7,1.7,0,0,1,215.233,49.852Zm-.291,7.038,2.162-.247,1.9,16.8-2.162.247Z" transform="translate(-124.847 -42.676)" fill="#129bd8"/>
      <path id="Trazado_1785" data-name="Trazado 1785" d="M231.354,51.877l2.162-.247,1.511,13.391a15.905,15.905,0,0,1-.035,5.243,6.764,6.764,0,0,1-2.547,3.9,9.752,9.752,0,0,1-4.908,1.819,11.74,11.74,0,0,1-3.952-.168,7.828,7.828,0,0,1-2.99-1.329,9.757,9.757,0,0,1-2.332-2.788l2.347-.264a6.284,6.284,0,0,0,2.754,2.2,8.016,8.016,0,0,0,3.848.375,7.862,7.862,0,0,0,3.641-1.242,5.123,5.123,0,0,0,1.94-2.315,9.318,9.318,0,0,0,.195-4.1l-.1-.863a8.241,8.241,0,0,1-2.717,2.707,8.686,8.686,0,0,1-3.646,1.247,8.777,8.777,0,0,1-4.489-.656,8.242,8.242,0,0,1-3.5-2.739,8.507,8.507,0,0,1-1.595-4.156,8.793,8.793,0,0,1,7.7-9.686,8.094,8.094,0,0,1,3.607.38,9.859,9.859,0,0,1,3.436,2.214Zm-6.193,2.374a6.922,6.922,0,0,0-3.313,1.272,6.518,6.518,0,0,0-2.194,2.734,6.736,6.736,0,0,0-.513,3.491,6.144,6.144,0,0,0,2.369,4.363,7.339,7.339,0,0,0,9.6-1.067,6.36,6.36,0,0,0,1.282-4.916,6.874,6.874,0,0,0-1.215-3.293,6.118,6.118,0,0,0-2.63-2.09A6.623,6.623,0,0,0,225.162,54.25Z" transform="translate(-120.118 -40.051)" fill="#129bd8"/>
      <path id="Trazado_1786" data-name="Trazado 1786" d="M226.433,48.585a1.794,1.794,0,0,1,.4,3.565,1.707,1.707,0,0,1-1.3-.385,1.73,1.73,0,0,1-.666-1.188,1.8,1.8,0,0,1,1.565-1.992Zm-.288,7.041,2.162-.242,1.9,16.8-2.162.247Z" transform="translate(-108.437 -44.53)" fill="#129bd8"/>
      <path id="Trazado_1787" data-name="Trazado 1787" d="M229.889,48.659l2.162-.247.7,6.239,3.429-.385.212,1.869-3.429.385,1.691,14.937L232.5,71.7,230.8,56.766l-2.948.333-.21-1.869,2.946-.333Z" transform="translate(-104.348 -44.766)" fill="#129bd8"/>
      <path id="Trazado_1788" data-name="Trazado 1788" d="M249.092,49.871l1.9,16.8-2.13.242-.325-2.889a9.3,9.3,0,0,1-2.771,2.83,8.359,8.359,0,0,1-3.6,1.252,8.271,8.271,0,0,1-6.385-1.9,8.724,8.724,0,0,1-3.237-6.005,8.582,8.582,0,0,1,1.846-6.5,8.368,8.368,0,0,1,5.838-3.269,7.965,7.965,0,0,1,3.848.459A8.6,8.6,0,0,1,247.31,53.2l-.353-3.086Zm-8.456,2.63a6.558,6.558,0,0,0-5.381,4.031,6.863,6.863,0,0,0,.772,6.784,6.661,6.661,0,0,0,2.731,2.243,6.452,6.452,0,0,0,3.4.535,6.8,6.8,0,0,0,3.259-1.277,6.3,6.3,0,0,0,2.172-2.7,6.921,6.921,0,0,0,.466-3.54,6.734,6.734,0,0,0-2.47-4.657A6.387,6.387,0,0,0,240.637,52.5Z" transform="translate(-97.272 -42.628)" fill="#129bd8"/>
      <path id="Trazado_1789" data-name="Trazado 1789" d="M240.76,47.175l2.164-.242,2.628,23.284-2.162.247Z" transform="translate(-85.133 -46.933)" fill="#129bd8"/>
    </g>
  </g>
</svg>
