<svg xmlns="http://www.w3.org/2000/svg" width="54.011" height="33.749" viewBox="0 0 54.011 33.749">
  <g id="adobexd_2" transform="translate(-32.806 -43.048)">
    <g id="Grupo_452" data-name="Grupo 452" transform="translate(32.806 43.048)">
      <path id="Trazado_1734" data-name="Trazado 1734" d="M88.515,184.552l11.348-17.327L89.58,151.347h7.837l6.659,10.668,6.523-10.668h7.769l-10.329,16.127,11.348,17.078H111.3l-7.361-11.484-7.384,11.484Z" transform="translate(-88.515 -151.347)" fill="#fff"/>
      <path id="Trazado_1735" data-name="Trazado 1735" d="M301.3,184.552h-5.912v-3.533a9.549,9.549,0,0,1-3.477,3.069,8.923,8.923,0,0,1-4.043,1.008,9.162,9.162,0,0,1-7.1-3.341q-2.956-3.341-2.956-9.32,0-6.116,2.876-9.3a9.379,9.379,0,0,1,7.271-3.182,9.009,9.009,0,0,1,6.976,3.352V151.347H301.3v33.2ZM284.316,172q0,3.851,1.065,5.572a4.809,4.809,0,0,0,4.3,2.492,4.685,4.685,0,0,0,3.737-1.869,8.625,8.625,0,0,0,1.54-5.583q0-4.145-1.495-5.968a4.731,4.731,0,0,0-3.828-1.823,4.782,4.782,0,0,0-3.794,1.8A8.136,8.136,0,0,0,284.316,172Z" transform="translate(-247.293 -151.347)" fill="#fff"/>
    </g>
  </g>
</svg>
