<svg xmlns="http://www.w3.org/2000/svg" width="176.907" height="176.906" viewBox="0 0 176.907 176.906">
  <g id="logo-ionic" transform="translate(-32 -32)">
    <path id="Trazado_1793" data-name="Trazado 1793" d="M194.217,153.9a40.317,40.317,0,1,0,40.317,40.317A40.317,40.317,0,0,0,194.217,153.9Z" transform="translate(-73.764 -73.764)"/>
    <circle id="Elipse_35" data-name="Elipse 35" cx="18.37" cy="18.37" r="18.37" transform="translate(159.969 46.978)"/>
    <path id="Trazado_1794" data-name="Trazado 1794" d="M200.954,83.808l-.77-1.69-1.228,1.39a27.642,27.642,0,0,1-11.08,7.629l-1.185.434.482,1.157a72.309,72.309,0,1,1-35.749-37.549l1.133.513.494-1.153a27.716,27.716,0,0,1,8.158-10.693l1.449-1.157-1.647-.817A87.51,87.51,0,0,0,120.453,32a88.468,88.468,0,1,0,80.5,51.808Z" transform="translate(0 0)"/>
  </g>
</svg>
