<svg xmlns="http://www.w3.org/2000/svg" width="218.529" height="218.528" viewBox="0 0 218.529 218.528">
  <g id="logo-ionic" transform="translate(-32 -32)">
    <path id="Trazado_1793" data-name="Trazado 1793" d="M203.7,153.9a49.8,49.8,0,1,0,49.8,49.8A49.8,49.8,0,0,0,203.7,153.9Z" transform="translate(-62.439 -62.439)" fill="#4a8af9"/>
    <circle id="Elipse_35" data-name="Elipse 35" cx="22.692" cy="22.692" r="22.692" transform="translate(190.077 50.502)" fill="#4a8af9"/>
    <path id="Trazado_1794" data-name="Trazado 1794" d="M240.7,96l-.951-2.088-1.517,1.717a34.145,34.145,0,0,1-13.687,9.424l-1.463.537.6,1.429a89.322,89.322,0,1,1-44.159-46.384l1.4.634.61-1.424a34.237,34.237,0,0,1,10.078-13.209L193.4,45.2l-2.034-1.01A108.1,108.1,0,0,0,141.264,32,109.282,109.282,0,1,0,240.7,96Z" transform="translate(0 0)" fill="#4a8af9"/>
  </g>
</svg>
