<svg xmlns="http://www.w3.org/2000/svg" width="324.433" height="224.415" viewBox="0 0 324.433 224.415">
  <g id="ps" transform="translate(-93.783 -143.305)">
    <g id="Grupo_459" data-name="Grupo 459">
      <path id="Trazado_1751" data-name="Trazado 1751" d="M93.783,364.106V143.36c73.118,0,109.354-.754,124.527,3.312q18.972,4.97,31.771,21.608c16.531,21.494,15.8,57.681,5.421,77.171a62.782,62.782,0,0,1-41.86,32.224c-19.585,3.879-48.582,3.162-75.289,3.162v83.269Zm44.571-183.4v62.64c45.164,0,62.774,1.462,73.556-14.3C219.068,218.57,218.916,202,209.878,192,198.581,179.506,186.238,180.7,138.354,180.7Z" fill="#fff"/>
      <path id="Trazado_1752" data-name="Trazado 1752" d="M268.844,318.481,311.307,312c3.952,18.007,16.1,25.147,34.18,25.147,13.8,0,30.266-3.461,30.266-17.317,0-9.314-7.79-11.366-17.166-13.551q-51.2-11.293-64.9-20.629-18.973-12.948-18.972-35.988,0-20.779,16.412-34.934t50.895-14.154c34.939,0,61.006,8.391,70.771,42.312l-39.9,7.379a24.688,24.688,0,0,0-9.712-14.3c-10.9-7.572-35.916-5.742-44.345-.3-6.014,4.134-6.7,11.692-.6,16.262,12.251,9.032,64.6,12.323,86.732,30.718q13.25,11.293,13.251,31.47,0,21.987-18.37,37.8T345.488,367.72q-32.678,0-51.723-13.251A61.036,61.036,0,0,1,268.844,318.481Z" fill="#fff"/>
    </g>
  </g>
</svg>
